<svg width="10" height="6" viewBox="0 0 10 6" fill="none" xmlns="http://www.w3.org/2000/svg">
<path d="M5.00187 4.1996L1.63147 0.829204L1.63147 0.829195C1.45269 0.650443 1.16285 0.650443 0.984066 0.829196L0.984035 0.829227C0.805326 1.00802 0.805315 1.29782 0.984043 1.4766L0.984059 1.47662L4.67816 5.17073L4.67818 5.17074C4.85695 5.34947 5.14678 5.34947 5.32556 5.17074L5.32557 5.17073L9.01968 1.47662L9.01969 1.47664L9.02151 1.47476C9.19717 1.29287 9.19212 1.00303 9.01024 0.827373L9.01023 0.827368C8.83281 0.656034 8.55153 0.656023 8.37412 0.827376L8.3741 0.827359L8.37226 0.829203L5.00187 4.1996Z" fill="#50CAFF" stroke="#50CAFF" stroke-width="0.3"/>
</svg>
